<?xml version="1.0" encoding="utf-8"?>
<!-- Generator: Adobe Illustrator 17.0.0, SVG Export Plug-In . SVG Version: 6.00 Build 0)  -->
<!DOCTYPE svg PUBLIC "-//W3C//DTD SVG 1.1//EN" "http://www.w3.org/Graphics/SVG/1.1/DTD/svg11.dtd">
<svg version="1.1" id="Layer_1" xmlns="http://www.w3.org/2000/svg" xmlns:xlink="http://www.w3.org/1999/xlink" x="0px" y="0px"
	 width="60px" height="60px" viewBox="0 0 60 60" enable-background="new 0 0 60 60" xml:space="preserve">
<path fill="#FFFFFF" d="M59.921,54.013L45.939,38.457c2.497-3.879,3.952-8.492,3.952-13.448c0-13.742-11.14-24.883-24.883-24.883
	c-13.742,0-24.883,11.14-24.883,24.883c0,13.742,11.141,24.883,24.883,24.883c5.538,0,10.652-1.811,14.786-4.871l13.465,14.981
	L59.921,54.013z M25.008,41.044c-8.842,0-16.036-7.194-16.036-16.036S16.166,8.972,25.008,8.972s16.036,7.194,16.036,16.036
	S33.85,41.044,25.008,41.044z"/>
</svg>
